<svg width="34px" height="55px" viewBox="0 0 34 55" version="1.1" xmlns="http://www.w3.org/2000/svg" xmlns:xlink="http://www.w3.org/1999/xlink">
    <g id="Page-1" stroke="none" stroke-width="1" fill="none" fill-rule="evenodd">
        <g id="add-photo" fill="#DADADA">
            <g id="Welcome">
                <g id="Mobile:-Add-a-new-item">
                    <g id="Group-4">
                        <g id="Group-3">
                            <path d="M16,9.97402597 C13.70624,9.97402597 11.84,11.7917922 11.84,14.025974 C11.84,16.2601558 13.70624,18.0779221 16,18.0779221 C18.29376,18.0779221 20.16,16.2601558 20.16,14.025974 C20.16,11.7917922 18.29376,9.97402597 16,9.97402597 L16,9.97402597 L16,9.97402597 Z" id="Shape"></path>
                            <path d="M27.84,4.05194805 L23.04,4.05194805 C23.04,1.81402597 21.1776,0 18.88,0 L13.12,0 C10.8224,0 8.96,1.81402597 8.96,4.05194805 L4.16,4.05194805 C1.8624,4.05194805 0,5.86597403 0,8.1038961 L0,19.9480519 C0,22.185974 1.8624,24 4.16,24 L27.84,24 C30.1376,24 32,22.185974 32,19.9480519 L32,8.1038961 C32,5.86597403 30.1376,4.05194805 27.84,4.05194805 L27.84,4.05194805 L27.84,4.05194805 Z M16,21.1948052 C11.94144,21.1948052 8.64,17.9788052 8.64,14.025974 C8.64,10.0731429 11.94144,6.85714286 16,6.85714286 C20.05856,6.85714286 23.36,10.0731429 23.36,14.025974 C23.36,17.9788052 20.05856,21.1948052 16,21.1948052 L16,21.1948052 L16,21.1948052 Z" id="Shape"></path>
                        </g>
                        <g id="Add-Photo" transform="translate(0.000000, 32.000000)">
                            <path d="M7.686,6.34 L7.95,5.368 C8.214,4.444 8.478,3.436 8.706,2.464 L8.754,2.464 C9.018,3.424 9.258,4.444 9.534,5.368 L9.798,6.34 L7.686,6.34 Z M10.806,10 L12.666,10 L9.81,1.12 L7.722,1.12 L4.878,10 L6.678,10 L7.302,7.72 L10.182,7.72 L10.806,10 Z M15.93,10.168 C16.626,10.168 17.298,9.784 17.79,9.304 L17.826,9.304 L17.97,10 L19.398,10 L19.398,0.424 L17.634,0.424 L17.634,2.788 L17.706,3.844 C17.226,3.4 16.758,3.112 16.002,3.112 C14.55,3.112 13.182,4.456 13.182,6.652 C13.182,8.848 14.262,10.168 15.93,10.168 L15.93,10.168 Z M16.386,8.716 C15.498,8.716 14.994,8.02 14.994,6.628 C14.994,5.284 15.63,4.564 16.386,4.564 C16.806,4.564 17.226,4.696 17.634,5.068 L17.634,8.02 C17.25,8.524 16.854,8.716 16.386,8.716 L16.386,8.716 Z M23.658,10.168 C24.354,10.168 25.026,9.784 25.518,9.304 L25.554,9.304 L25.698,10 L27.126,10 L27.126,0.424 L25.362,0.424 L25.362,2.788 L25.434,3.844 C24.954,3.4 24.486,3.112 23.73,3.112 C22.278,3.112 20.91,4.456 20.91,6.652 C20.91,8.848 21.99,10.168 23.658,10.168 L23.658,10.168 Z M24.114,8.716 C23.226,8.716 22.722,8.02 22.722,6.628 C22.722,5.284 23.358,4.564 24.114,4.564 C24.534,4.564 24.954,4.696 25.362,5.068 L25.362,8.02 C24.978,8.524 24.582,8.716 24.114,8.716 L24.114,8.716 Z" id="Add"></path>
                            <path d="M-4.4408921e-16,22 L1.776,22 L1.776,18.844 L2.964,18.844 C4.872,18.844 6.396,17.932 6.396,15.904 C6.396,13.804 4.884,13.12 2.916,13.12 L-4.4408921e-16,13.12 L-4.4408921e-16,22 Z M1.776,17.44 L1.776,14.524 L2.784,14.524 C4.008,14.524 4.656,14.872 4.656,15.904 C4.656,16.924 4.068,17.44 2.844,17.44 L1.776,17.44 Z M7.86,22 L9.612,22 L9.612,17.38 C10.116,16.888 10.464,16.624 11.016,16.624 C11.676,16.624 11.964,16.996 11.964,18.028 L11.964,22 L13.728,22 L13.728,17.812 C13.728,16.12 13.104,15.112 11.652,15.112 C10.74,15.112 10.08,15.592 9.54,16.096 L9.612,14.836 L9.612,12.424 L7.86,12.424 L7.86,22 Z M18.348,22.168 C20.028,22.168 21.576,20.872 21.576,18.652 C21.576,16.408 20.028,15.112 18.348,15.112 C16.668,15.112 15.12,16.408 15.12,18.652 C15.12,20.872 16.668,22.168 18.348,22.168 L18.348,22.168 Z M18.348,20.728 C17.436,20.728 16.92,19.912 16.92,18.652 C16.92,17.38 17.436,16.552 18.348,16.552 C19.26,16.552 19.776,17.38 19.776,18.652 C19.776,19.912 19.26,20.728 18.348,20.728 L18.348,20.728 Z M25.176,22.168 C25.764,22.168 26.232,22.036 26.592,21.916 L26.304,20.632 C26.124,20.704 25.86,20.776 25.644,20.776 C25.044,20.776 24.732,20.416 24.732,19.648 L24.732,16.672 L26.388,16.672 L26.388,15.28 L24.732,15.28 L24.732,13.48 L23.256,13.48 L23.052,15.28 L22.02,15.364 L22.02,16.672 L22.968,16.672 L22.968,19.648 C22.968,21.16 23.58,22.168 25.176,22.168 L25.176,22.168 Z M30.336,22.168 C32.016,22.168 33.564,20.872 33.564,18.652 C33.564,16.408 32.016,15.112 30.336,15.112 C28.656,15.112 27.108,16.408 27.108,18.652 C27.108,20.872 28.656,22.168 30.336,22.168 L30.336,22.168 Z M30.336,20.728 C29.424,20.728 28.908,19.912 28.908,18.652 C28.908,17.38 29.424,16.552 30.336,16.552 C31.248,16.552 31.764,17.38 31.764,18.652 C31.764,19.912 31.248,20.728 30.336,20.728 L30.336,20.728 Z" id="Photo"></path>
                        </g>
                    </g>
                </g>
            </g>
        </g>
    </g>
</svg>
