<svg width="85px" height="85px" viewBox="0 0 85 85" version="1.1" xmlns="http://www.w3.org/2000/svg" xmlns:xlink="http://www.w3.org/1999/xlink">
    <g id="Welcome" stroke="none" stroke-width="1" fill="none" fill-rule="evenodd">
        <g id="Group-5">
            <rect id="Rectangle-23" fill="#DADADA" x="0" y="0" width="85" height="85"></rect>
            <g id="Group" transform="translate(25.000000, 20.000000)" fill="#FFFFFF">
                <path d="M36.9437917,2.96058271 C36.9437917,1.32552632 28.6790796,0 18.4839648,0 C8.28884992,0 0.0240811639,1.32552632 0.0240811639,2.96058271 C0.0240811639,3.02892857 0.0398330781,3.09671053 0.0682771822,3.16392857 C0.0382465544,3.14892857 0.0240811639,3.14086466 0.0240811639,3.14086466 L0.0240811639,6.67184211 C0.0240811639,7.77451128 0.921316998,8.05009398 0.921316998,8.05009398 C0.921316998,8.05009398 3.56066922,9.6487782 18.4716692,9.6487782 C33.3826126,9.6487782 36.0220214,8.05003759 36.0220214,8.05003759 C36.0220214,8.05003759 36.9192006,7.77445489 36.9192006,6.67184211 L36.9192006,3.14080827 C36.9192006,3.14080827 36.914781,3.14328947 36.9059418,3.14802632 C36.9300796,3.08599624 36.9437917,3.02357143 36.9437917,2.96058271 L36.9437917,2.96058271 Z" id="Shape"></path>
                <path d="M18.4716692,11.4971617 C7.34333844,11.4971617 2.04610567,10.1339662 2.04610567,10.1339662 C2.04610567,10.1339662 4.24004135,38.6229135 4.37937213,40.3558647 C4.51864625,42.088703 7.90825421,45 18.4716692,45 C29.0350276,45 32.4246355,42.088703 32.5639096,40.3558647 C32.7032404,38.6229699 34.8971761,10.1339662 34.8971761,10.1339662 C34.8971761,10.1339662 29.6101991,11.4971617 18.4716692,11.4971617 L18.4716692,11.4971617 Z M30.3997213,35.3629511 C27.7603691,35.8242857 23.3670582,36.4296429 18.4839648,36.4296429 C13.6167366,36.4296429 9.22144257,35.8281767 6.56820827,35.367406 L6.56820827,21.1980451 C9.41635835,21.6279699 13.6634257,22.1052632 18.4839648,22.1052632 C23.3125498,22.1052632 27.5582006,21.6263346 30.3997213,21.1958459 L30.3997213,35.3629511 L30.3997213,35.3629511 Z" id="Shape"></path>
            </g>
        </g>
    </g>
</svg>
