<svg id="Layer_1" data-name="Layer 1" xmlns="http://www.w3.org/2000/svg" viewBox="0 0 307.29 381.51"><defs><style>.cls-1{fill:#7ab800;}.cls-2{fill:#5d5d5d;}.cls-3{fill:#fff;}</style></defs><title>landing</title><path class="cls-1" d="M667.91,152.63h5.29v3.71H658.75v-3.71h5.12V119.89h-5.12v-3.71H670l14.57,34.08,16-34.08h11.14v3.71H706.5v32.73h5.17v3.71h-14.4v-3.71h5.17V121.35l-16.42,35h-3.15l-15-34.87v31.16Z" transform="translate(-636.31 212.96)"/><path class="cls-1" d="M729.16,163.82H734v3.49H720.33v-3.49h4.95l3-7.26L717.91,130.3h-4.72v-3.49h13.5v3.49H722l8.32,21.6,8.83-21.6h-4.61v-3.49h13.39v3.49h-4.72Z" transform="translate(-636.31 212.96)"/><path class="cls-1" d="M754.41,122.59H750v-6.41h30v12.09h-7.65V123H762.06v10.29H773.7v5.91H762.06v10.69h4.39v6.41H750v-6.41h4.39V122.59Z" transform="translate(-636.31 212.96)"/><path class="cls-1" d="M792.59,131.42c1.74-3.54,5.12-5.29,9-5.46v7a9.13,9.13,0,0,0-5.91,2.19c-2.25,1.91-2.59,4.33-2.59,7.14v7.59H797v6.41H782.36v-6.41h3.88V132.72h-3.88V126.3h10.24v5.12Z" transform="translate(-636.31 212.96)"/><path class="cls-1" d="M814.64,149.93h3.88v6.41H803.84v-6.41h3.94V132.72h-3.88V126.3h10.74v23.62Zm0-26.49h-6.86v-7.26h6.86v7.26Z" transform="translate(-636.31 212.96)"/><path class="cls-1" d="M845.46,151.84a11.36,11.36,0,0,1-9.84,4.95,15.5,15.5,0,0,1-.06-31,12.52,12.52,0,0,1,9.9,4.89v-8.1h-3.94v-6.41h10.8v33.75h3.88v6.41H845.46v-4.5Zm0.17-10.63a9.08,9.08,0,1,0-9.11,9.28A9.18,9.18,0,0,0,845.62,141.21Z" transform="translate(-636.31 212.96)"/><path class="cls-1" d="M867,158.93c1.18,2.53,4.11,3.71,6.75,3.71a8.63,8.63,0,0,0,6.36-2.76c1.91-2.25,2.08-4.16,2.08-7v-1.12c-2.14,3.49-5.57,5-9.62,5a15.37,15.37,0,0,1-15.19-15.52,15.6,15.6,0,0,1,15.24-15.47c4,0,7.76,1.41,10,4.89V126.3h10.18v6.41H889v19.63c0,4.61-.34,8.21-3.77,11.64a16.29,16.29,0,0,1-11.75,4.56c-6.24,0-12.77-3.09-14.34-9.62H867Zm6.58-8.49a9.17,9.17,0,1,0-9.17-9.22A9.15,9.15,0,0,0,873.63,150.43Z" transform="translate(-636.31 212.96)"/><path class="cls-1" d="M924.58,147.51a15.42,15.42,0,0,1-14.17,9.62,15.62,15.62,0,0,1-15.8-15.69c0-8.89,6.69-16,15.64-16a16.09,16.09,0,0,1,11.25,4.84,15.7,15.7,0,0,1,4.22,11.25l-0.22,2.42h-24.3a9.27,9.27,0,0,0,9,7.2,8.36,8.36,0,0,0,7.26-3.6h7.14Zm-5.23-8.89a9.59,9.59,0,0,0-9.45-7.09,9.3,9.3,0,0,0-8.77,7.09h18.22Z" transform="translate(-636.31 212.96)"/><ellipse class="cls-2" cx="232.85" cy="250.72" rx="3.38" ry="3.54"/><path class="cls-2" d="M930.06-72.13H808.26s-13.53,0-13.53,14.18V2.31h6.77v-60c0-7.37,6.77-7.37,6.77-7.37H930.06s6.77,0,6.77,7.37V20H828.56v7.09H936.83V41c0,7.37-6.77,7.37-6.77,7.37H828.56v7.09h27.07V69.66H842.09v7.09h54.14V69.66H882.69V55.48h47.37s13.53,0,13.53-14.18V-58C943.6-72.13,930.06-72.13,930.06-72.13Z" transform="translate(-636.31 212.96)"/><path class="cls-2" d="M818.47,9.08h-34a3.39,3.39,0,0,0-3.32,3.45V73.3a3.42,3.42,0,0,0,3.32,3.45h34a3.39,3.39,0,0,0,3.32-3.45V12.53A3.42,3.42,0,0,0,818.47,9.08Zm-17,64.29A3.38,3.38,0,1,1,804.87,70,3.38,3.38,0,0,1,801.49,73.36ZM815,63.21H788V15.84H815V63.21Z" transform="translate(-636.31 212.96)"/><path class="cls-2" d="M739.61-213H652a15.66,15.66,0,0,0-15.64,15.64v126A15.66,15.66,0,0,0,652-55.65h1.62V-48a3.84,3.84,0,0,0,3.84,3.84h13.43A3.84,3.84,0,0,0,674.68-48v-7.67h42.2V-48a3.84,3.84,0,0,0,3.84,3.84h13.43A3.84,3.84,0,0,0,738-48v-7.67h1.62A15.66,15.66,0,0,0,755.25-71.3v-126A15.66,15.66,0,0,0,739.61-213ZM667-51.82h-5.76v-3.84H667v3.84Zm63.31,0h-5.76v-3.84h5.76v3.84ZM747.58-71.3a8,8,0,0,1-8,8H652a8,8,0,0,1-8-8v-68.77H747.58V-71.3Zm0-76.44H644v-49.58a8,8,0,0,1,8-8h87.65a8,8,0,0,1,8,8v49.58Z" transform="translate(-636.31 212.96)"/><path class="cls-2" d="M657.42-190.24a3.84,3.84,0,0,0-3.84,3.84v25.23a3.84,3.84,0,0,0,3.84,3.84,3.84,3.84,0,0,0,3.84-3.84V-186.4A3.84,3.84,0,0,0,657.42-190.24Z" transform="translate(-636.31 212.96)"/><path class="cls-2" d="M657.42-94a3.84,3.84,0,0,0,3.84-3.84v-25.23a3.84,3.84,0,0,0-3.84-3.84,3.84,3.84,0,0,0-3.84,3.84v25.23A3.84,3.84,0,0,0,657.42-94Z" transform="translate(-636.31 212.96)"/><path class="cls-3" d="M814.74-146.66l1.22-6.69-20.29,7.23,16.41,14,1.19-6.49a46.07,46.07,0,0,1,28.64,42.77h8A54,54,0,0,0,814.74-146.66Z" transform="translate(-636.31 212.96)"/><path class="cls-3" d="M749,29.19l-16.41-14-1.19,6.49A46.07,46.07,0,0,1,702.79-21h-8A54,54,0,0,0,730,29.74l-1.22,6.69Z" transform="translate(-636.31 212.96)"/></svg>