<svg id="Layer_1" data-name="Layer 1" xmlns="http://www.w3.org/2000/svg" viewBox="0 0 46 46"><defs><style>.cls-1{fill:#7FBF0F;}</style></defs><title>logout</title><polygon class="cls-1" points="38.3 23.1 25.1 23.1 25.1 16.4 38.3 16.4 38.3 11.4 46 19.7 38.3 28.1 38.3 23.1"/><polygon class="cls-1" points="18.2 46 1.5 38 1.5 1.5 18.2 9.4 18.2 46"/><path class="cls-1" d="M32.1,40.5H2.5A1.54,1.54,0,0,1,1,39V2.5A1.54,1.54,0,0,1,2.5,1H32.1a1.54,1.54,0,0,1,1.5,1.5v9.2a1.5,1.5,0,1,1-3,0V3.9H4V37.6H30.6V29.9a1.5,1.5,0,1,1,3,0V39A1.61,1.61,0,0,1,32.1,40.5Z" transform="translate(-1 -1)"/></svg>
