<svg width="90px" height="90px" viewBox="0 0 90 90" version="1.1" xmlns="http://www.w3.org/2000/svg" xmlns:xlink="http://www.w3.org/1999/xlink">
    <g id="Page-1" stroke="none" stroke-width="1" fill="none" fill-rule="evenodd">
        <g id="Group" fill="#FFFFFF">
            <path d="M45,0 C20.147,0 0,20.147 0,45 C0,69.853 20.147,90 45,90 C69.853,90 90,69.853 90,45 C90,20.147 69.853,0 45,0 L45,0 Z M45,78.75 C26.36,78.75 11.25,63.64 11.25,45 C11.25,26.36 26.36,11.25 45,11.25 C63.64,11.25 78.75,26.36 78.75,45 C78.75,63.64 63.64,78.75 45,78.75 L45,78.75 Z" id="Shape"></path>
            <path d="M64.688,63.281 L36.562,63.281 C34.232,63.281 32.343,61.392 32.343,59.062 L32.343,59.062 C32.343,56.732 34.232,54.843 36.562,54.843 L64.687,54.843 C67.017,54.843 68.906,56.732 68.906,59.062 L68.906,59.062 C68.906,61.392 67.017,63.281 64.688,63.281 L64.688,63.281 Z" id="Shape"></path>
            <path d="M64.688,49.219 L36.562,49.219 C34.232,49.219 32.343,47.33 32.343,45 L32.343,45 C32.343,42.67 34.232,40.781 36.562,40.781 L64.687,40.781 C67.017,40.781 68.906,42.67 68.906,45 L68.906,45 C68.906,47.33 67.017,49.219 64.688,49.219 L64.688,49.219 Z" id="Shape"></path>
            <path d="M64.688,35.156 L36.562,35.156 C34.232,35.156 32.343,33.267 32.343,30.937 L32.343,30.937 C32.343,28.607 34.232,26.718 36.562,26.718 L64.687,26.718 C67.017,26.718 68.906,28.607 68.906,30.937 L68.906,30.937 C68.906,33.267 67.017,35.156 64.688,35.156 L64.688,35.156 Z" id="Shape"></path>
            <circle id="Oval" cx="25.312" cy="30.938" r="4.219"></circle>
            <circle id="Oval" cx="25.312" cy="45" r="4.219"></circle>
            <circle id="Oval" cx="25.312" cy="59.062" r="4.219"></circle>
        </g>
    </g>
</svg>
